<svg xmlns="http://www.w3.org/2000/svg" xmlns:xlink="http://www.w3.org/1999/xlink" width="118" height="118" viewBox="0 0 118 118">
  <defs>
    <filter id="Rectangle_411831" x="0" y="0" width="118" height="118" filterUnits="userSpaceOnUse">
      <feOffset dy="3" input="SourceAlpha"/>
      <feGaussianBlur stdDeviation="3" result="blur"/>
      <feFlood flood-opacity="0.161"/>
      <feComposite operator="in" in2="blur"/>
      <feComposite in="SourceGraphic"/>
    </filter>
    <clipPath id="clip-path">
      <rect id="Rectangle_446198" data-name="Rectangle 446198" width="80" height="77" transform="translate(546.992 2637.913)" fill="#fff" stroke="#707070" stroke-width="1"/>
    </clipPath>
  </defs>
  <g id="Group_1262215" data-name="Group 1262215" transform="translate(-528.381 -2619.913)">
    <g transform="matrix(1, 0, 0, 1, 528.38, 2619.91)" filter="url(#Rectangle_411831)">
      <g id="Rectangle_411831-2" data-name="Rectangle 411831" transform="translate(9 6)" fill="#a4e0d4" stroke="#fff" stroke-width="2">
        <path d="M5,0H68a32,32,0,0,1,32,32V95a5,5,0,0,1-5,5H32A32,32,0,0,1,0,68V5A5,5,0,0,1,5,0Z" stroke="none"/>
        <path d="M5,1H68A31,31,0,0,1,99,32V95a4,4,0,0,1-4,4H32A31,31,0,0,1,1,68V5A4,4,0,0,1,5,1Z" fill="none"/>
      </g>
    </g>
    <g id="Mask_Group_1099632" data-name="Mask Group 1099632" clip-path="url(#clip-path)">
      <g id="report_9078974" transform="translate(548.492 2637.913)">
        <rect id="Rectangle_448106" data-name="Rectangle 448106" width="49.015" height="66.005" transform="translate(1.972 1.504)" fill="#eaf0f0"/>
        <path id="Path_1328675" data-name="Path 1328675" d="M14.656,25.479l0,0-.56,6.446h9.43l-.56-6.446v0l0,0a9.078,9.078,0,0,0-.295-16.292l-.674-.3v8.52H15.68V8.891l-.618.244a9.08,9.08,0,0,0-.406,16.344Z" fill="#bdd3dd"/>
        <rect id="Rectangle_448107" data-name="Rectangle 448107" width="49.015" height="66.005" transform="translate(1.972 1.504)" fill="none" stroke="#000" stroke-linecap="round" stroke-linejoin="round" stroke-miterlimit="10" stroke-width="3.008"/>
        <path id="Path_1328676" data-name="Path 1328676" d="M14.656,25.479l0,0-.56,6.446h9.43l-.56-6.446v0l0,0a9.078,9.078,0,0,0-.295-16.292l-.674-.3v8.52H15.68V8.891l-.618.244a9.08,9.08,0,0,0-.406,16.344Z" fill="none" stroke="#000" stroke-linecap="round" stroke-linejoin="round" stroke-miterlimit="10" stroke-width="3.008"/>
        <path id="Path_1328677" data-name="Path 1328677" d="M66.122,44.237H60.83a2.364,2.364,0,0,1-2.364-2.364V19.995H68.486V41.873A2.364,2.364,0,0,1,66.122,44.237Z" fill="#9d98e9"/>
        <path id="Path_1328678" data-name="Path 1328678" d="M67.34,43.9V59.925A32.32,32.32,0,0,1,64.579,73l-1.1,2.5-1.1-2.5a32.32,32.32,0,0,1-2.761-13.073V43.9a2.346,2.346,0,0,0,1.218.338h5.292A2.346,2.346,0,0,0,67.34,43.9Z" fill="#9d98e9"/>
        <path id="Path_1328679" data-name="Path 1328679" d="M58.526,19.995H71.835a3.193,3.193,0,0,1,3.193,3.193V43" fill="none" stroke="#000" stroke-linecap="round" stroke-linejoin="round" stroke-miterlimit="10" stroke-width="3.008"/>
        <path id="Path_1328680" data-name="Path 1328680" d="M66.748,19.995H60.2V16.869A3.272,3.272,0,0,1,63.476,13.6h0a3.272,3.272,0,0,1,3.273,3.272v3.126Z" fill="#b6b2ee"/>
        <path id="Path_1328681" data-name="Path 1328681" d="M66.122,44.237H60.83a2.364,2.364,0,0,1-2.364-2.364V19.995H68.486V41.873A2.364,2.364,0,0,1,66.122,44.237Z" fill="none" stroke="#000" stroke-linecap="round" stroke-linejoin="round" stroke-miterlimit="10" stroke-width="3.008"/>
        <path id="Path_1328682" data-name="Path 1328682" d="M67.34,43.9V59.925A32.32,32.32,0,0,1,64.579,73l-1.1,2.5-1.1-2.5a32.32,32.32,0,0,1-2.761-13.073V43.9a2.346,2.346,0,0,0,1.218.338h5.292A2.346,2.346,0,0,0,67.34,43.9Z" fill="none" stroke="#000" stroke-linecap="round" stroke-linejoin="round" stroke-miterlimit="10" stroke-width="3.008"/>
        <path id="Path_1328683" data-name="Path 1328683" d="M66.748,19.995H60.2V16.869A3.272,3.272,0,0,1,63.476,13.6h0a3.272,3.272,0,0,1,3.273,3.272v3.126Z" fill="none" stroke="#000" stroke-linecap="round" stroke-linejoin="round" stroke-miterlimit="10" stroke-width="3.008"/>
        <line id="Line_658" data-name="Line 658" x2="7.03" transform="translate(35.349 11.703)" fill="none" stroke="#000" stroke-linecap="round" stroke-linejoin="round" stroke-miterlimit="10" stroke-width="3.008"/>
        <line id="Line_659" data-name="Line 659" x2="7.03" transform="translate(35.349 21.836)" fill="none" stroke="#000" stroke-linecap="round" stroke-linejoin="round" stroke-miterlimit="10" stroke-width="3.008"/>
        <line id="Line_660" data-name="Line 660" x2="9.266" transform="translate(10.571 42.103)" fill="none" stroke="#000" stroke-linecap="round" stroke-linejoin="round" stroke-miterlimit="10" stroke-width="3.008"/>
        <line id="Line_661" data-name="Line 661" x1="7.03" transform="translate(35.349 31.969)" fill="none" stroke="#000" stroke-linecap="round" stroke-linejoin="round" stroke-miterlimit="10" stroke-width="3.008"/>
        <line id="Line_662" data-name="Line 662" x2="9.312" transform="translate(33.067 42.103)" fill="none" stroke="#000" stroke-linecap="round" stroke-linejoin="round" stroke-miterlimit="10" stroke-width="3.008"/>
        <rect id="Rectangle_448108" data-name="Rectangle 448108" width="31.808" height="6.628" transform="translate(10.571 52.236)" fill="#ff7e96"/>
        <rect id="Rectangle_448109" data-name="Rectangle 448109" width="31.808" height="6.628" transform="translate(10.571 52.236)" fill="none" stroke="#000" stroke-linecap="round" stroke-linejoin="round" stroke-miterlimit="10" stroke-width="3.008"/>
        <line id="Line_663" data-name="Line 663" transform="translate(26.455 42.103)" fill="none" stroke="#000" stroke-linecap="round" stroke-linejoin="round" stroke-miterlimit="10" stroke-width="3.008"/>
      </g>
    </g>
  </g>
</svg>
